<svg xmlns="http://www.w3.org/2000/svg" xmlns:xlink="http://www.w3.org/1999/xlink" viewBox="0 0 348 348" fill="none">
  <defs>
    <pattern xlink:href="#a" id="b" patternTransform="translate(0 8.3507166)"/>
    <pattern id="a" height="5.1805778" width="30.06602" patternUnits="userSpaceOnUse">
      <path d="M7.597.061C5.079-.187 2.656.302-.01 1.788v1.273c2.783-1.63 5.183-2.009 7.482-1.781 2.298.228 4.497 1.081 6.781 1.938 4.567 1.713 9.551 3.458 15.813-.157l-.004-1.273c-6.44 3.709-10.816 1.982-15.371.273-2.278-.854-4.576-1.75-7.094-2z" fill="#000"/>
    </pattern>
  </defs>
  <path d="M5.079 5.776h336.913v337.67H5.08z" stroke-width="2" stroke="#000"/>
  <path d="M282.734 40.554c0-8.376 6.966-15.165 15.56-15.165 4.126 0 8.084 1.597 11.001 4.441 2.918 2.844 4.558 6.702 4.558 10.724 0 8.376-6.966 15.165-15.56 15.165-8.593 0-15.559-6.79-15.559-15.165zM26.401098 252.662c0-19.96028 16.179322-36.13869 36.139857-36.13869 9.583102 0 18.776003 3.8057 25.551071 10.58304 6.777379 6.77735 10.586465 15.9711 10.586465 25.55565 0 19.96029-16.179325 36.13871-36.139868 36.13871-19.958203 0-36.137525-16.1808-36.137525-36.13871z" stroke-width="2" stroke="#000"/>
  <path d="M145.76319 23.819076h51.4642v72.467749h-51.46405z" fill="url(#b)" stroke="#000" stroke-width="2"/>
  <path d="M14.8793 100.51328l75.825623-42.766553 15.452847 9.800674-75.825408 42.766419z" stroke="#000" stroke-width="2"/>
  <path d="M18.927971 59.012924l83.552319-46.705369 12.07519 50.953081-83.552078 46.705234z" fill="#fff" stroke="#000" stroke-width="2"/>
  <path d="M171.4955 107.39283v69.25754" stroke="#000" stroke-width="2" stroke-linecap="round"/>
  <path d="M121.78092 211.80458h205.26317v107.85363H121.78152z" stroke="#000" stroke-width="2"/>
  <path d="M190.2021 212.35558v35.38631" stroke="#000" stroke-width="2" stroke-linecap="round"/>
  <path d="M258.6231 211.90833v35.83357" stroke="#000" stroke-width="2" stroke-linecap="round"/>
  <path d="M326.62568 247.75602H122.12724M326.62568 283.70703H122.12724" stroke="#000" stroke-width="2" stroke-linecap="round"/>
  <path d="M61.5128356 272.45290381v-3.8526466q-2.88948494-.36386243-4.70879055-1.28421552-1.79790174-.94175532-3.12492419-3.0179024-1.3056194-2.07614707-1.51965477-5.07265545l3.87404964-.72771666q.44947544 3.1035195 1.58386637 4.55896103 1.62667246 2.05474485 3.8954535 2.29018573v-12.26425421q-2.37579873-.44947955-4.85861515-1.8407144-1.84070947-1.02737243-2.84667803-2.8466764-.98456552-1.81930396-.98456552-4.13089192 0-4.1094897 2.91088881-6.65651854 1.94772717-1.71228464 5.7789699-2.0975493v-1.8407144h2.26878022v1.8407144q3.36036425.32104978 5.32949445 1.96912775 2.52562416 2.0975493 3.03931037 5.75756766l-3.98106815.59930333q-.34245775-2.26878352-1.43404095-3.46738194-1.07017933-1.22000886-2.95369572-1.60527352v11.10846845q2.91088881.72771666 3.8526466 1.13438354 1.79790174.79193976 2.93229267 1.9263233 1.13439011 1.13439175 1.73369015 2.69685261.62070472 1.56246908.62070472 3.38177305 0 4.00247037-2.5470272 6.67792076-2.54702802 2.67544217-6.59230694 2.86807861v3.89545104zm0-33.7320558q-2.24737717.34245199-3.55299657 1.79790174-1.28421553 1.45544153-1.28421553 3.4459797 0 1.96912775 1.0915832 3.29614773 1.11298707 1.3270282 3.7456289 2.11895973zm2.26878023 26.62606593q2.24737718-.27824532 3.702822-1.94772552 1.47684786-1.66948019 1.47684786-4.13089192 0-2.09755751-1.0487763-3.3603626-1.02737242-1.28421553-4.13089356-2.29018573z" fill="#000" stroke-width="1.21669626"/>
  <path d="M131 227.90498v-9.44883h3.56426q.94102 0 1.43731.0902.69609.11602 1.1666.44473.47051.32227.7541.90879.29004.58652.29004 1.28906 0 1.20528-.76699 2.04317-.767.83144-2.77149.83144h-2.42344v3.84141zm1.25039-4.95645h2.44278q1.21172 0 1.7209-.45117.50918-.45117.50918-1.26973 0-.59296-.30293-1.01191-.29649-.42539-.78633-.56074-.31582-.0838-1.1666-.0838h-2.417zM139.76563 227.90498v-9.44883h1.25039v8.33379h4.65352v1.11504zM146.12715 227.90498l3.62871-9.44883h1.34707l3.86719 9.44883h-1.42441l-1.10215-2.86172h-3.95098l-1.03769 2.86172zm2.72637-3.88008h3.20332l-.98613-2.6168q-.45117-1.19238-.67031-1.95937-.18047.90879-.50918 1.80469zM157.66426 227.90498v-4.00254l-3.6416-5.44629h1.5211l1.86269 2.84883q.51563.79922.96035 1.59844.42539-.74122 1.03125-1.66934l1.83047-2.77793h1.45664l-3.7705 5.44629v4.00254zM163.84532 227.90498v-9.44883h6.83203v1.11504h-5.58164v2.89394h5.22715v1.1086h-5.22715v3.21621h5.80078v1.11504zM172.65606 227.90498v-9.44883h4.18946q1.26328 0 1.9207.25781.65742.25137 1.05059.8959.39316.64453.39316 1.42441 0 1.00547-.65098 1.69512-.65097.68965-2.01093.87656.49628.23848.7541.47051.54785.50274 1.03769 1.25684l1.64356 2.57168h-1.57266l-1.25039-1.96582q-.54785-.85078-.90234-1.30196-.3545-.45117-.63809-.63164-.27715-.18047-.56719-.25136-.21269-.0451-.69609-.0451h-1.4502v4.1959zm1.25039-5.27871h2.6877q.85723 0 1.34062-.17403.4834-.18047.73477-.56718.25137-.39317.25137-.85079 0-.67031-.48985-1.10214-.4834-.43184-1.53398-.43184h-2.99063zM141.66055 241.10498v-9.44883h3.56426q.94102 0 1.4373.0902.6961.11602 1.16661.44473.4705.32227.7541.90879.29004.58652.29004 1.28906 0 1.20528-.767 2.04317-.76699.83144-2.77148.83144h-2.42344v3.84141zm1.25039-4.95645h2.44278q1.21171 0 1.72089-.45117t.50918-1.26973q0-.59296-.30293-1.01191-.29648-.42539-.78632-.56074-.31582-.0838-1.16661-.0838h-2.41699zM148.46036 241.10498l3.62871-9.44883h1.34707l3.86719 9.44883h-1.42442l-1.10215-2.86172h-3.95097l-1.0377 2.86172zm2.72636-3.88008h3.20332l-.98613-2.6168q-.45117-1.19238-.67031-1.95937-.18047.90879-.50918 1.80469zM158.52794 241.10498v-9.44883h1.25039v9.44883zM161.99551 241.10498v-9.44883h4.18946q1.26328 0 1.9207.25781.65742.25137 1.05059.8959.39316.64453.39316 1.42442 0 1.00546-.65098 1.69511-.65097.68965-2.01093.87657.49629.23847.7541.4705.54785.50274 1.03769 1.25684l1.64356 2.57168h-1.57266l-1.25039-1.96582q-.54785-.85078-.90234-1.30195-.3545-.45118-.63809-.63165-.27715-.18046-.56719-.25136-.21269-.0451-.69609-.0451h-1.4502v4.1959zm1.25039-5.27871h2.6877q.85723 0 1.34062-.17403.4834-.18046.73477-.56718.25137-.39317.25137-.85078 0-.67032-.48985-1.10215-.48339-.43184-1.53398-.43184h-2.99063z" fill="#000"/>
  <path d="M266.2305 227.90498v-9.44883h3.54492q1.08281 0 1.73379.29004.65742.28359 1.02481.883.37382.59297.37382 1.24395 0 .60586-.32871 1.14082t-.99258.86367q.85723.25137 1.31485.85723.46406.60586.46406 1.43086 0 .66387-.28359 1.2375-.27715.56719-.68965.87656-.4125.30938-1.0377.47051-.61875.15469-1.52109.15469zm1.25039-5.47852h2.04316q.83145 0 1.19239-.10957.47695-.1418.71543-.47051.24492-.32871.24492-.825 0-.47051-.22559-.825-.22558-.36094-.64453-.48984-.41894-.13535-1.4373-.13535h-1.88848zm0 4.36348h2.35254q.60586 0 .85078-.0451.43184-.0773.72188-.25781.29003-.18047.47695-.52207.18691-.34805.18691-.79922 0-.52852-.2707-.91524-.2707-.39316-.7541-.54785-.47695-.16113-1.3793-.16113h-2.18496zM274.06155 227.90498l3.62872-9.44883h1.34707l3.86718 9.44883h-1.42441l-1.10215-2.86172h-3.95098l-1.03769 2.86172zm2.72637-3.88008h3.20332l-.98613-2.6168q-.45117-1.19238-.67031-1.95937-.18047.90878-.50918 1.80468zM283.90355 227.90498v-9.44883h1.28262l4.96289 7.41855v-7.41855h1.19882v9.44883h-1.28261l-4.96289-7.425v7.425zM293.40394 227.90498v-9.44883h1.25039v4.68574l4.69219-4.68574h1.69511l-3.96386 3.82851 4.13789 5.62032h-1.65l-3.36446-4.78243-1.54687 1.50821v3.27422zM302.29847 227.90498v-9.44883h6.83203v1.11504h-5.58164v2.89394h5.22715v1.1086h-5.22715v3.21621h5.80078v1.11504zM311.10921 227.90498v-9.44883h4.18946q1.26328 0 1.9207.25781.65742.25137 1.05059.8959.39316.64453.39316 1.42441 0 1.00547-.65098 1.69512-.65097.68965-2.01093.87656.49629.23848.7541.47051.54785.50273 1.03769 1.25684l1.64356 2.57168h-1.57266l-1.25039-1.96582q-.54785-.85079-.90234-1.30196-.3545-.45117-.63809-.63164-.27715-.18047-.56719-.25137-.21269-.0451-.69609-.0451h-1.4502v4.1959zm1.25039-5.27872h2.6877q.85723 0 1.34062-.17402.4834-.18047.73477-.56719.25137-.39316.25137-.85078 0-.67031-.48985-1.10215-.48339-.43183-1.53398-.43183h-2.99063zM278.52816 241.10498v-9.44883h3.56425q.94102 0 1.43731.0902.69609.11602 1.1666.44473.47051.32226.7541.90879.29004.58652.29004 1.28906 0 1.20527-.76699 2.04316-.76699.83145-2.77149.83145h-2.42343v3.84141zm1.25039-4.95645h2.44277q1.21172 0 1.7209-.45117.50918-.45117.50918-1.26973 0-.59297-.30293-1.01191-.29649-.42539-.78633-.56074-.31582-.0838-1.1666-.0838h-2.41699zM285.32796 241.10498l3.62871-9.44883h1.34707l3.86719 9.44883h-1.42441l-1.10215-2.86172h-3.95098l-1.03769 2.86172zm2.72637-3.88008h3.20332l-.98613-2.6168q-.45118-1.19238-.67032-1.95937-.18046.90879-.50918 1.80468zM295.39554 241.10498v-9.44883h1.25039v9.44883zM298.86312 241.10498v-9.44883h4.18945q1.26328 0 1.92071.25781.65742.25137 1.05058.8959.39317.64453.39317 1.42441 0 1.00547-.65098 1.69512-.65098.68965-2.01094.87656.49629.23848.7541.47051.54785.50274 1.0377 1.25684l1.64355 2.57168h-1.57265l-1.25039-1.96582q-.54786-.85079-.90235-1.30196-.35449-.45117-.63808-.63164-.27715-.18047-.56719-.25136-.2127-.0451-.6961-.0451h-1.45019v4.1959zm1.25039-5.27871h2.68769q.85723 0 1.34063-.17403.4834-.18047.73477-.56719.25136-.39316.25136-.85078 0-.67031-.48984-1.10215-.4834-.43183-1.53399-.43183h-2.99062z" fill="#000"/>
  <path d="M211.12217 239.2295v-16.66758H204.896v-2.23008h14.9789v2.23008h-6.25195v16.66758zM222.87842 239.2295v-18.89766h2.50078v18.89766zM229.82647 239.2295v-18.89766h13.66406v2.23008h-11.16328v5.78789h10.45429v2.21719h-10.45429v6.43242h11.60156v2.23008z" fill="#000"/>
  <path d="M136.041 275.18097v-18.89765h7.08985q2.16562 0 3.46758.58007 1.31484.56719 2.04961 1.76602.74765 1.18594.74765 2.48789 0 1.21172-.65742 2.28164t-1.98516 1.72734q1.71446.50274 2.62969 1.71446.92813 1.21172.92813 2.86172 0 1.32773-.56719 2.475-.5543 1.13437-1.3793 1.75312-.825.61875-2.07539.94102-1.2375.30937-3.04219.30937zm2.50079-10.95703h4.08632q1.66289 0 2.38477-.21914.95391-.28359 1.43086-.94102.48984-.65742.48984-1.65 0-.94101-.45117-1.65-.45117-.72187-1.28906-.97968-.83789-.27071-2.87461-.27071h-3.77695zm0 8.72695h4.70507q1.21172 0 1.70157-.0902.86367-.15469 1.44375-.51562.58007-.36094.9539-1.04415.37383-.69609.37383-1.59843 0-1.05703-.54141-1.83047-.5414-.78633-1.5082-1.09571-.95391-.32226-2.75859-.32226h-4.36992zM164.90312 275.18097l7.25742-18.89765h2.69414l7.73437 18.89765h-2.84882l-2.2043-5.72344h-7.90196l-2.07539 5.72344zm5.45273-7.76015h6.40664l-1.97226-5.2336q-.90235-2.38476-1.34063-3.91875-.36094 1.81758-1.01836 3.60938zM197.7871 275.18097v-18.89765h2.56524l9.92578 14.83711v-14.83711h2.39765v18.89765h-2.56523l-9.92578-14.85v14.85zM231.43164 275.18097v-18.89765h2.50078v9.37148l9.38437-9.37148h3.39024l-7.92774 7.65703 8.27578 11.24062h-3.3l-6.7289-9.56484-3.09375 3.0164v6.54844zM263.86445 275.18097v-18.89765h13.66407v2.23007h-11.16329v5.78789h10.4543v2.21719h-10.4543v6.43242h11.60157v2.23008zM296.12968 275.18097v-18.89765h8.37891q2.52656 0 3.84141.51562 1.31484.50273 2.10117 1.7918.78633 1.28906.78633 2.84883 0 2.01093-1.30196 3.39023-1.30195 1.3793-4.02187 1.75313.99258.47695 1.5082.94101 1.09571 1.00547 2.07539 2.51367l3.28711 5.14336h-3.14531l-2.50078-3.93164q-1.0957-1.70156-1.80469-2.6039-.70898-.90235-1.27617-1.26329-.5543-.36093-1.13438-.50273-.42539-.0902-1.39218-.0902h-2.90039v8.39179zm2.50079-10.55742h5.37539q1.71445 0 2.68125-.34805.96679-.36093 1.46953-1.13437.50273-.78633.50273-1.70156 0-1.34063-.97968-2.2043-.9668-.86367-3.06797-.86367h-5.98125z" fill="#000"/>
  <path d="M139.4695 311.13146V292.2338h7.12852q1.88203 0 2.87461.18047 1.39219.23203 2.3332.88945.94102.64454 1.50821 1.81758.58007 1.17305.58007 2.57813 0 2.41055-1.53398 4.08633-1.53399 1.66289-5.54297 1.66289h-4.84688v7.68281zm2.50078-9.91289h4.88555q2.42344 0 3.4418-.90234 1.01836-.90235 1.01836-2.53946 0-1.18594-.60586-2.02383-.59297-.85078-1.57266-1.12148-.63164-.16758-2.3332-.16758h-4.83399zM171.18044 311.13146V292.2338h2.50078v16.66758h9.30704v2.23008zM196.1238 311.13146l7.25743-18.89766h2.69414l7.73437 18.89766h-2.84883l-2.20429-5.72344h-7.90196l-2.07539 5.72344zm5.45274-7.76016h6.40664l-1.97227-5.23359q-.90234-2.38477-1.34062-3.91875-.36094 1.81758-1.01836 3.60937zM233.89334 311.13146v-8.00508l-7.28321-10.89258h3.04219l3.72539 5.69766q1.03125 1.59844 1.92071 3.19687.85078-1.48242 2.0625-3.33867l3.66093-5.55586h2.91329l-7.54102 10.89258v8.00508zM260.43514 311.13146V292.2338h13.66406v2.23008h-11.16328v5.78789h10.4543v2.21719h-10.4543v6.43242h11.60156v2.23008zM292.70038 311.13146V292.2338h8.3789q2.52656 0 3.84141.51563 1.31484.50273 2.10117 1.79179.78633 1.28907.78633 2.84883 0 2.01094-1.30195 3.39024-1.30196 1.37929-4.02188 1.75312.99258.47696 1.5082.94102 1.09571 1.00547 2.07539 2.51367l3.28711 5.14336h-3.14531l-2.50078-3.93164q-1.0957-1.70156-1.80469-2.60391-.70898-.90234-1.27617-1.26328-.5543-.36094-1.13438-.50273-.42539-.0902-1.39218-.0902h-2.90039v8.3918zm2.50078-10.55742h5.37539q1.71445 0 2.68125-.34805.96679-.36094 1.46953-1.13437.50273-.78633.50273-1.70157 0-1.34062-.97968-2.20429-.9668-.86368-3.06797-.86368h-5.98125z" fill="#000"/>
  <path d="M92.948999 114v-9.44883h3.564258q.941016 0 1.437305.0902.696094.11601 1.166602.44472.470507.32227.754101.90879.290035.58652.290035 1.28906 0 1.20528-.766988 2.04317-.766992.83144-2.771485.83144H94.19939V114zm1.250391-4.95645h2.442773q1.211719 0 1.720899-.45117t.50918-1.26972q0-.59297-.30293-1.01192-.296484-.42539-.786328-.56074-.315821-.0838-1.166602-.0838H94.19939zM101.71462 114v-9.44883h1.2504v8.33379h4.65351V114zM108.07615 114l3.62871-9.44883h1.34707L116.91912 114h-1.42442l-1.10215-2.86172h-3.95097L109.40388 114zm2.72637-3.88008h3.20332l-.98614-2.6168q-.45117-1.19238-.67031-1.95937-.18047.90879-.50918 1.80469zM119.61326 114v-4.00254l-3.6416-5.44629h1.52109l1.8627 2.84883q.51562.79922.96035 1.59844.42539-.74121 1.03125-1.66934l1.83047-2.77793h1.45664l-3.77051 5.44629V114zM125.79431 114v-9.44883h6.83204v1.11504h-5.58164v2.89395h5.22714v1.10859h-5.22714v3.21621h5.80078V114zM134.60506 114v-9.44883h4.18945q1.26328 0 1.9207.25781.65743.25137 1.05059.8959.39316.64453.39316 1.42442 0 1.00547-.65097 1.69511-.65098.68965-2.01094.87657.49629.23847.7541.4705.54785.50274 1.0377 1.25684L142.9324 114h-1.57265l-1.2504-1.96582q-.54785-.85078-.90234-1.30195-.35449-.45118-.63808-.63164-.27715-.18047-.56719-.25137-.2127-.0451-.6961-.0451h-1.45019V114zm1.25039-5.27871h2.68769q.85723 0 1.34063-.17402.4834-.18047.73476-.56719.25137-.39317.25137-.85078 0-.67032-.48984-1.10215-.4834-.43184-1.53399-.43184h-2.99062z" fill="#000"/>
  <path d="M200.05801 114v-9.44883h3.54492q1.08281 0 1.73379.29004.65742.28359 1.0248.88301.37383.59297.37383 1.24394 0 .60586-.32871 1.14082-.32871.53497-.99258.86368.85723.25136 1.31485.85722.46406.60586.46406 1.43086 0 .66387-.2836 1.2375-.27714.56719-.68964.87656-.4125.30938-1.0377.47051-.61875.15469-1.52109.15469zm1.25039-5.47852h2.04316q.83145 0 1.19238-.10957.47696-.14179.71543-.4705.24493-.32872.24493-.825 0-.47051-.22559-.825-.22559-.36094-.64453-.48985-.41895-.13535-1.43731-.13535h-1.88847zm0 4.36348h2.35254q.60586 0 .85078-.0451.43183-.0773.72187-.25781.29004-.18047.47696-.52207.18691-.34805.18691-.79922 0-.52851-.2707-.91523-.27071-.39317-.7541-.54785-.47696-.16114-1.3793-.16114h-2.18496zM207.88906 114l3.62871-9.44883h1.34707L216.73203 114h-1.42441l-1.10215-2.86172h-3.95098L209.2168 114zm2.72637-3.88008h3.20332l-.98613-2.6168q-.45118-1.19238-.67032-1.95937-.18046.90879-.50918 1.80469zM217.73105 114v-9.44883h1.28262l4.96289 7.41856v-7.41856h1.19883V114h-1.28262l-4.96289-7.425V114zM227.23145 114v-9.44883h1.25039v4.68574l4.69218-4.68574h1.69512l-3.96387 3.82852L235.04316 114h-1.65l-3.36445-4.78242-1.54687 1.5082V114zM236.12598 114v-9.44883h6.83203v1.11504h-5.58164v2.89395h5.22715v1.10859h-5.22715v3.21621h5.80078V114zM244.93672 114v-9.44883h4.18945q1.26328 0 1.92071.25781.65742.25137 1.05058.8959.39317.64453.39317 1.42442 0 1.00547-.65098 1.69511-.65098.68965-2.01094.87657.49629.23847.7541.4705.54786.50274 1.0377 1.25684L253.26406 114h-1.57265l-1.25039-1.96582q-.54785-.85078-.90235-1.30195-.35449-.45118-.63808-.63164-.27715-.18047-.56719-.25137-.2127-.0451-.69609-.0451h-1.4502V114zm1.25039-5.27871h2.6877q.85722 0 1.34062-.17402.4834-.18047.73477-.56719.25136-.39317.25136-.85078 0-.67032-.48984-1.10215-.4834-.43184-1.53398-.43184h-2.99063z" fill="#000"/>
  <path d="M32.305946 252.662c0-16.69889 13.535717-30.23384 30.234822-30.23384 8.017278 0 15.708113 3.18387 21.376177 8.85383 5.669996 5.66998 8.856695 13.36152 8.856695 21.38001 0 16.6989-13.535715 30.23386-30.234821 30.23386-16.697156 0-30.232873-13.53695-30.232873-30.23386z" stroke="#000" stroke-width="10.69228363" stroke-dasharray="10.69228363,21.38456726"/>
  <path d="M37.648428 252.662c0-13.7481 11.143883-24.89136 24.892165-24.89136 6.600583 0 12.932406 2.62127 17.598893 7.28932 4.66807 4.66805 7.29167 11.00046 7.29167 17.60204 0 13.74812-11.143882 24.89138-24.89217 24.89138-13.746675 0-24.890558-11.1449-24.890558-24.89138z" stroke="#000" stroke-width="2"/>
  <path overflow="visible" style="marker:none" d="M47.980082 307.73682l6.947523 9.26336-18.526729-9.26336 18.526729-9.26337z" color="#000" stroke="#000" stroke-width="2" stroke-linejoin="round" stroke-miterlimit="10"/>
  <path overflow="visible" style="marker:none" d="M77.099146 307.73681l-6.94738-9.26336 18.526357 9.26336-18.526357 9.26337z" color="#000" stroke="#000" stroke-width="2" stroke-linejoin="round" stroke-miterlimit="10"/>
</svg>
